<svg xmlns="http://www.w3.org/2000/svg" width="81" height="81" viewBox="0 0 81 81" fill="none"><rect x="0.320312" y="0.572266" width="80" height="80" rx="39.9981" fill="url(#paint0_linear_136_531)"></rect><rect x="4.46875" y="4.71167" width="71.7119" height="71.7119" rx="35.8506" fill="#0C2C47"></rect><path d="M62.0659 37.5893L60.6153 41.8939C60.5663 42.0374 60.4737 42.1626 60.3502 42.2516C60.2268 42.3405 60.0779 42.3877 59.9254 42.3877H54.1175H26.5233H20.7137C20.5593 42.3877 20.4105 42.3405 20.287 42.2498C20.1635 42.1608 20.071 42.0337 20.0238 41.8903L18.5713 37.5076C18.5459 37.435 18.5332 37.3587 18.5332 37.2807V27.1464C18.535 26.5691 18.7638 26.0153 19.1723 25.6068C19.5808 25.2002 20.1363 24.9678 20.7137 24.9678H59.9254C60.5045 24.9678 61.0583 25.2002 61.465 25.6068C61.8753 26.0153 62.104 26.5691 62.1058 27.1464V35.8264C62.1058 35.8464 62.1058 35.8646 62.1058 35.8863V37.3587C62.1058 37.4386 62.0931 37.5149 62.0659 37.5893ZM27.2495 40.9371H53.3931V39.4847H27.2495V40.9371ZM27.2495 38.0323H53.3931V36.5817H27.2495V38.0323ZM19.9856 37.1627L21.2365 40.9371H25.7971V36.5817H19.9856V37.1627ZM60.6534 27.1464C60.6534 26.954 60.5772 26.7688 60.4392 26.6326C60.303 26.4983 60.1197 26.4202 59.9254 26.4202H20.7118C20.5194 26.4202 20.3342 26.4983 20.198 26.6326C20.0619 26.7688 19.9856 26.954 19.9856 27.1464V35.1293H26.5233H54.1175H60.6534V27.1464ZM60.6534 36.5817H54.8455V40.9371H59.4062L60.6534 37.2389V36.5817ZM43.2262 31.5H37.4165C37.1569 31.5 36.9172 31.3621 36.7883 31.1369C36.6576 30.9118 36.6576 30.6358 36.7883 30.4125C36.9172 30.1874 37.1569 30.0476 37.4165 30.0476H43.2262C43.4858 30.0476 43.7254 30.1874 43.8562 30.4125C43.9851 30.6358 43.9851 30.9118 43.8562 31.1369C43.7254 31.3621 43.4858 31.5 43.2262 31.5ZM27.6127 53.3699C27.8378 53.5006 27.9758 53.7402 27.9758 53.998C27.9758 54.2577 28.1137 54.4973 28.3389 54.6262C28.564 54.7569 28.8418 54.7569 29.0669 54.6262C29.2902 54.4973 29.4282 54.2577 29.4282 53.998V46.0152C29.4282 45.7556 29.568 45.5159 29.7913 45.387C30.0164 45.2563 30.2924 45.2563 30.5175 45.387C30.7426 45.5159 30.8806 45.7556 30.8806 46.0152V53.998C30.8806 54.5754 30.65 55.1291 30.2433 55.5376C29.833 55.9461 29.2793 56.1749 28.702 56.1767C28.1246 56.1749 27.5709 55.9461 27.1624 55.5376C26.7557 55.1291 26.5233 54.5754 26.5233 53.998C26.5233 53.7402 26.6631 53.5006 26.8864 53.3699C27.1116 53.241 27.3875 53.241 27.6127 53.3699ZM33.4223 51.9229C33.6475 52.0518 33.7873 52.2914 33.7873 52.5511C33.7873 52.8089 33.9234 53.0503 34.1485 53.1792C34.3737 53.3081 34.6496 53.3081 34.8748 53.1792C35.0999 53.0503 35.2379 52.8089 35.2379 52.5511V44.5682C35.2379 44.3068 35.3777 44.0671 35.601 43.9382C35.8261 43.8093 36.1021 43.8093 36.3272 43.9382C36.5523 44.0671 36.6903 44.3068 36.6903 44.5682V52.5511C36.6903 53.1284 36.4597 53.6803 36.053 54.0906C35.6427 54.4973 35.089 54.7279 34.5117 54.7279C33.9343 54.7279 33.3806 54.4973 32.9721 54.0906C32.5636 53.6803 32.333 53.1284 32.333 52.5511C32.333 52.2914 32.4728 52.0518 32.6961 51.9229C32.9213 51.7922 33.1972 51.7922 33.4223 51.9229ZM40.6844 43.9364C40.9096 44.0671 41.0475 44.3068 41.0475 44.5646V53.2755C41.0475 53.4679 40.9713 53.6513 40.8351 53.7874C40.699 53.9236 40.5138 54.0017 40.3213 54.0017C40.1289 54.0017 39.9437 53.9236 39.8075 53.7874C39.6714 53.6513 39.5951 53.4679 39.5951 53.2755V44.5646C39.5951 44.3068 39.7331 44.0671 39.9582 43.9364C40.1834 43.8057 40.4593 43.8057 40.6844 43.9364ZM45.0417 43.9382C45.2668 44.0671 45.4048 44.3068 45.4048 44.5682V52.5511C45.4048 52.8089 45.5428 53.0503 45.7679 53.1792C45.993 53.3081 46.269 53.3081 46.4941 53.1792C46.7174 53.0503 46.8572 52.8089 46.8572 52.5511C46.8572 52.2914 46.9952 52.0518 47.2203 51.9229C47.4455 51.7922 47.7214 51.7922 47.9465 51.9229C48.1717 52.0518 48.3097 52.2914 48.3097 52.5511C48.3097 53.1284 48.0791 53.6803 47.6706 54.0906C47.2621 54.4973 46.7084 54.7279 46.131 54.7279C45.5537 54.7279 44.9999 54.4973 44.5915 54.0906C44.183 53.6803 43.9524 53.1284 43.9524 52.5511V44.5682C43.9524 44.3068 44.0904 44.0671 44.3155 43.9382C44.5406 43.8093 44.8184 43.8093 45.0417 43.9382ZM50.8514 45.387C51.0765 45.5159 51.2145 45.7556 51.2145 46.0152V53.998C51.2145 54.2577 51.3525 54.4973 51.5776 54.6262C51.8027 54.7569 52.0787 54.7569 52.3038 54.6262C52.5271 54.4973 52.6669 54.2577 52.6669 53.998C52.6669 53.7402 52.8049 53.5006 53.03 53.3699C53.2551 53.241 53.5311 53.241 53.7562 53.3699C53.9814 53.5006 54.1175 53.7402 54.1175 53.998C54.1175 54.5754 53.8888 55.1291 53.4803 55.5376C53.0718 55.9461 52.518 56.1749 51.9407 56.1767C51.3634 56.1749 50.8078 55.9461 50.4011 55.5376C49.9926 55.1291 49.7621 54.5754 49.7621 53.998V46.0152C49.7621 45.7556 49.9001 45.5159 50.1252 45.387C50.3503 45.2563 50.6281 45.2563 50.8514 45.387Z" fill="white"></path><defs><linearGradient id="paint0_linear_136_531" x1="40.3203" y1="0.572266" x2="40.3203" y2="80.5723" gradientUnits="userSpaceOnUse"><stop stop-color="#DD754D"></stop><stop offset="1" stop-color="#44C7EE"></stop></linearGradient></defs></svg>