<svg xmlns="http://www.w3.org/2000/svg" width="81" height="81" viewBox="0 0 81 81" fill="none"><rect x="0.109375" y="0.572266" width="80" height="80" rx="39.9981" fill="url(#paint0_linear_136_515)"></rect><rect x="4.25781" y="4.71167" width="71.7119" height="71.7119" rx="35.8506" fill="#0C2C47"></rect><path d="M59.985 39.7135C58.8067 40.8936 57.1745 41.6252 55.3735 41.6252H19.4334C19.0576 41.6252 18.7525 41.3202 18.7525 40.9444C18.7525 40.5668 19.0576 40.2618 19.4334 40.2618H55.3735C56.7987 40.2618 58.0877 39.6844 59.0227 38.7494C59.9559 37.8181 60.5314 36.5272 60.5314 35.1021C60.5314 33.6751 59.9559 32.386 59.0227 31.4528C58.0877 30.5179 56.7987 29.9405 55.3735 29.9405C53.952 29.9405 52.6611 30.5179 51.728 31.4528C50.7948 32.386 50.2156 33.6751 50.2156 35.1021C50.2156 35.4779 49.9124 35.7811 49.5366 35.7811C49.1608 35.7811 48.8558 35.4779 48.8558 35.1021C48.8558 33.3011 49.5856 31.6689 50.7639 30.4888C51.944 29.3087 53.5743 28.5771 55.3735 28.5771C57.1745 28.5771 58.8067 29.3087 59.985 30.4888C61.1651 31.6689 61.8949 33.3011 61.8949 35.1021C61.8949 36.9012 61.1651 38.5334 59.985 39.7135ZM40.1612 35.9481H19.0049C18.6273 35.9481 18.3223 35.6413 18.3223 35.2673C18.3223 34.8896 18.6273 34.5846 19.0049 34.5846H40.1612C41.5864 34.5846 42.8754 34.0073 43.8104 33.0723C44.7436 32.1409 45.3191 30.8501 45.3191 29.4231C45.3191 27.9979 44.7436 26.7107 43.8104 25.7757C42.8754 24.8425 41.5864 24.2634 40.1612 24.2634C38.736 24.2634 37.4488 24.8425 36.5157 25.7757C35.5807 26.7107 35.0033 27.9979 35.0033 29.4231C35.0033 29.8007 34.6983 30.1057 34.3225 30.1057C33.9485 30.1057 33.6435 29.8007 33.6435 29.4231C33.6435 27.6239 34.3715 25.9917 35.5516 24.8117C36.7317 23.6316 38.362 22.8999 40.1612 22.8999C41.9622 22.8999 43.5908 23.6316 44.7727 24.8117C45.9528 25.9917 46.6826 27.6239 46.6826 29.4231C46.6826 31.2259 45.9528 32.8562 44.7727 34.0363C43.5908 35.2164 41.9622 35.9481 40.1612 35.9481ZM19.0049 45.1964H40.1612C41.9622 45.1964 43.5908 45.928 44.7727 47.1081C45.9528 48.2882 46.6826 49.9204 46.6826 51.7196C46.6826 53.5206 45.9528 55.1527 44.7727 56.3328C43.5908 57.5129 41.9622 58.2428 40.1612 58.2428C38.362 58.2428 36.7317 57.5129 35.5516 56.3328C34.3715 55.1527 33.6435 53.5206 33.6435 51.7196C33.6435 51.3419 33.9485 51.0387 34.3225 51.0387C34.6983 51.0387 35.0033 51.3419 35.0033 51.7196C35.0033 53.1448 35.5825 54.4356 36.5157 55.3688C37.4488 56.3038 38.7379 56.8811 40.1612 56.8811C41.5864 56.8811 42.8754 56.3038 43.8104 55.3688C44.7436 54.4356 45.3191 53.1448 45.3191 51.7196C45.3191 50.2944 44.7436 49.0035 43.8104 48.0704C42.8754 47.1354 41.5864 46.5598 40.1612 46.5598H19.0049C18.6273 46.5598 18.3223 46.2548 18.3223 45.879C18.3223 45.5014 18.6273 45.1964 19.0049 45.1964Z" fill="white"></path><defs><linearGradient id="paint0_linear_136_515" x1="40.1094" y1="0.572266" x2="40.1094" y2="80.5723" gradientUnits="userSpaceOnUse"><stop stop-color="#DD754D"></stop><stop offset="1" stop-color="#44C7EE"></stop></linearGradient></defs></svg>