<svg xmlns="http://www.w3.org/2000/svg" width="80" height="80" viewBox="0 0 80 80" fill="none"><rect x="0.00195312" width="79.9974" height="79.9974" rx="39.9981" fill="url(#paint0_linear_136_618)"></rect><rect x="4.14844" y="4.14746" width="71.7095" height="71.7095" rx="35.8506" fill="#0C2C47"></rect><g clip-path="url(#clip0_136_618)"><path fill-rule="evenodd" clip-rule="evenodd" d="M35.4499 21.8839C33.2603 22.6198 31.7809 22.6326 29.5776 22.7736L29.9015 24.7418C30.3588 27.4965 31.4205 30.1157 33.0104 32.4113C34.6004 34.7069 36.679 36.6218 39.097 38.0184L40.0007 38.5412L40.9045 38.0184C43.3225 36.6217 45.4011 34.7068 46.991 32.4112C48.581 30.1156 49.6427 27.4964 50.1 24.7417L50.4239 22.7735C48.2206 22.6326 46.7411 22.6198 44.5515 21.8838C43.2963 21.4619 42.1015 20.8779 40.9975 20.1466L40.0007 19.4864L39.0039 20.1466C37.8999 20.8779 36.7051 21.462 35.4499 21.8839ZM31.4946 21.491C33.9477 21.3367 36.3171 20.5402 38.3653 19.1816L39.6817 18.3101C39.778 18.2462 39.8913 18.2127 40.007 18.2139C40.1226 18.215 40.2352 18.2508 40.3303 18.3165L41.6366 19.1817C43.6847 20.5403 46.054 21.3367 48.5069 21.491L51.1344 21.659C51.2171 21.664 51.2978 21.6868 51.3709 21.7258C51.444 21.7648 51.5079 21.819 51.5582 21.8848C51.6085 21.9506 51.6442 22.0264 51.6626 22.1072C51.6811 22.188 51.682 22.2718 51.6652 22.3529L51.2416 24.9275C50.7565 27.8511 49.6299 30.6309 47.9429 33.0675C46.2559 35.504 44.0502 37.5367 41.4844 39.0196L40.2907 39.7101C40.2014 39.7619 40.1 39.7888 39.9969 39.7881C39.8937 39.7874 39.7926 39.7591 39.7041 39.7062L38.5171 39.0196C35.9513 37.5367 33.7456 35.504 32.0586 33.0675C30.3716 30.6309 29.245 27.8511 28.7598 24.9275L28.3323 22.3295C28.3196 22.2498 28.3237 22.1684 28.3443 22.0904C28.3648 22.0124 28.4014 21.9396 28.4518 21.8765C28.5021 21.8135 28.565 21.7616 28.6364 21.7242C28.7079 21.6868 28.7864 21.6648 28.8669 21.6594L31.4946 21.491ZM43.4822 25.0054C44.1707 25.694 44.6395 26.5712 44.8295 27.5262C45.0194 28.4812 44.9219 29.4711 44.5492 30.3707C44.1766 31.2703 43.5456 32.0392 42.7359 32.5802C41.9263 33.1211 40.9745 33.4099 40.0007 33.4099C39.027 33.4099 38.0752 33.1211 37.2655 32.5802C36.4559 32.0392 35.8249 31.2703 35.4522 30.3707C35.0796 29.4711 34.9821 28.4812 35.172 27.5262C35.3619 26.5712 35.8308 25.694 36.5193 25.0054C36.9765 24.5482 37.5192 24.1855 38.1166 23.9381C38.7139 23.6907 39.3542 23.5633 40.0007 23.5633C40.6473 23.5633 41.2875 23.6907 41.8849 23.9381C42.4822 24.1855 43.025 24.5482 43.4822 25.0054ZM40.0007 22.4037C41.2039 22.4037 42.3799 22.7605 43.3803 23.4289C44.3806 24.0973 45.1603 25.0474 45.6207 26.1589C46.0811 27.2704 46.2016 28.4935 45.9669 29.6735C45.7322 30.8535 45.1528 31.9374 44.3021 32.7881C43.4514 33.6388 42.3675 34.2182 41.1875 34.4529C40.0075 34.6876 38.7844 34.5671 37.6729 34.1067C36.5613 33.6463 35.6113 32.8667 34.9429 31.8663C34.2745 30.866 33.9177 29.6899 33.9177 28.4868C33.9178 26.8735 34.5587 25.3262 35.6994 24.1855C36.8402 23.0447 38.3874 22.4038 40.0007 22.4037ZM36.8989 28.6075C36.8411 28.5581 36.7937 28.4979 36.7593 28.4301C36.7249 28.3624 36.7041 28.2886 36.6982 28.2129C36.6923 28.1372 36.7014 28.061 36.725 27.9888C36.7485 27.9166 36.786 27.8497 36.8354 27.792C36.8848 27.7343 36.945 27.6869 37.0128 27.6525C37.0805 27.618 37.1543 27.5973 37.23 27.5914C37.3057 27.5855 37.3819 27.5946 37.4541 27.6181C37.5263 27.6416 37.5932 27.6792 37.6509 27.7286L39.2412 29.086L42.3755 26.6838C42.4359 26.6376 42.5047 26.6039 42.5782 26.5844C42.6516 26.5649 42.7282 26.5601 42.8035 26.5702C42.8788 26.5803 42.9514 26.6051 43.0171 26.6432C43.0828 26.6814 43.1403 26.7321 43.1865 26.7925C43.2326 26.8529 43.2663 26.9217 43.2858 26.9952C43.3053 27.0686 43.3102 27.1452 43.3001 27.2205C43.29 27.2958 43.2651 27.3684 43.227 27.4341C43.1889 27.4998 43.1381 27.5573 43.0778 27.6035L39.5729 30.2897C39.4676 30.3699 39.338 30.4117 39.2057 30.408C39.0734 30.4043 38.9463 30.3554 38.8457 30.2693L36.8989 28.6075ZM23.404 47.2949C23.4031 47.2137 23.3784 47.1347 23.3328 47.0675C23.2872 47.0004 23.2229 46.9483 23.1477 46.9176C23.0726 46.8869 22.9901 46.8791 22.9106 46.8952C22.8311 46.9112 22.758 46.9503 22.7007 47.0077C22.3186 47.392 22.9018 47.9717 23.2838 47.5876C23.3221 47.5491 23.3524 47.5035 23.3731 47.4532C23.3937 47.403 23.4042 47.3492 23.404 47.2949ZM24.0976 46.1861C25.0804 47.1633 24.3962 48.8608 22.995 48.8647C21.6024 48.8682 20.9005 47.1778 21.8809 46.1922C22.1743 45.8978 22.5725 45.7318 22.9881 45.7306C23.4038 45.7294 23.8029 45.8932 24.0979 46.1861H24.0976ZM29.7616 38.8425C29.8647 38.9026 29.9399 39.001 29.971 39.1162C30.002 39.2314 29.9865 39.3542 29.9277 39.458L23.6548 50.388C23.5945 50.4913 23.496 50.5666 23.3806 50.5977C23.2651 50.6288 23.1421 50.6131 23.0381 50.5542L20.0727 48.8538C19.9696 48.7937 19.8944 48.6954 19.8634 48.5802C19.8323 48.465 19.848 48.3423 19.9069 48.2385L26.1799 37.3085C26.24 37.2052 26.3386 37.1298 26.454 37.0987C26.5695 37.0676 26.6926 37.0833 26.7965 37.1424L29.7617 38.8423L29.7616 38.8425ZM31.2844 41.473L30.3987 40.9653L25.1944 50.0327L26.0801 50.5405L31.2842 41.473H31.2844ZM55.4425 47.2949C55.4463 45.8937 57.144 45.2095 58.1211 46.1922C59.101 47.1778 58.3993 48.8685 57.0068 48.8647C56.8009 48.8646 56.5971 48.8238 56.407 48.7448C56.217 48.6658 56.0443 48.5501 55.899 48.4042C55.7537 48.2584 55.6386 48.0854 55.5603 47.895C55.482 47.7047 55.4419 47.5007 55.4425 47.2949ZM56.7196 47.0061C56.3354 47.3882 56.9152 47.9714 57.2994 47.5892C57.6837 47.207 57.1038 46.624 56.7196 47.0061ZM53.2051 37.1426C53.309 37.0835 53.4321 37.0677 53.5476 37.0989C53.663 37.13 53.7615 37.2054 53.8217 37.3087L60.0947 48.2387C60.1536 48.3424 60.1692 48.4652 60.1382 48.5804C60.1072 48.6956 60.032 48.7939 59.9289 48.854L56.9633 50.554C56.8593 50.6131 56.7363 50.6288 56.6208 50.5977C56.5053 50.5666 56.4068 50.4912 56.3466 50.3878L50.0737 39.4579C50.0147 39.3541 49.9991 39.2313 50.0301 39.1161C50.0611 39.0009 50.1363 38.9026 50.2394 38.8425L53.205 37.1424L53.2051 37.1426ZM49.6028 40.9653L48.717 41.473L53.9211 50.5405L54.8068 50.0327L49.6028 40.9653ZM37.8777 57.1616C37.8603 57.0609 37.823 56.9647 37.7681 56.8785C37.7133 56.7923 37.6418 56.7179 37.558 56.6595C37.4741 56.601 37.3795 56.5598 37.2797 56.5382C37.1798 56.5166 37.0766 56.515 36.9761 56.5335C36.5171 56.6217 35.7953 57.896 35.4917 58.3516C35.1146 58.9171 35.5958 59.7042 36.2781 59.5732C36.4737 59.536 36.6468 59.4231 36.7597 59.2591L37.7625 57.7556C37.8775 57.5806 37.9189 57.3673 37.8777 57.162V57.1616ZM36.0032 55.5882C35.355 56.5013 34.6966 57.4055 34.0592 58.3272C33.5618 59.0146 32.4343 58.4521 32.7061 57.6029L34.7416 54.6754C35.3479 53.8293 36.5947 54.755 36.0034 55.5882H36.0032ZM30.1993 56.4593C29.6154 57.3149 30.9151 58.1742 31.4861 57.3375C32.392 56.0099 33.2881 54.6756 34.2071 53.3504C34.7908 52.495 33.4911 51.636 32.9204 52.4723L30.1993 56.4593ZM49.9501 52.4921C50.3181 52.3832 50.5856 52.2894 50.8496 52.0746C50.9204 52.0169 51.0997 51.7444 51.3118 51.4219C51.6023 50.9796 51.9454 50.4587 52.3126 50.066L48.3098 43.0915C47.7028 43.1476 46.6435 42.8182 46.0361 42.621C44.3047 42.0587 43.256 42.0724 41.4916 42.0139C40.3526 41.9761 38.7663 41.9049 37.8332 42.0139C37.2645 42.0805 36.8955 42.174 36.5895 42.6167C35.6075 44.0378 34.9169 45.3711 33.8438 46.838C33.4476 47.3796 33.8848 48.1823 34.5857 48.0761C34.7806 48.0473 34.9569 47.9447 35.0782 47.7894C35.7266 46.881 36.4012 45.9811 37.0608 45.0795C37.6798 44.2336 38.7683 44.1864 39.7532 44.2216C39.8292 44.224 39.904 44.2414 39.9733 44.2728C40.0426 44.3042 40.1051 44.3489 40.157 44.4045C40.209 44.4601 40.2495 44.5253 40.2762 44.5966C40.3028 44.6678 40.3152 44.7436 40.3125 44.8197C40.3098 44.8957 40.2922 44.9704 40.2605 45.0396C40.2289 45.1088 40.1839 45.1711 40.1282 45.2229C40.0724 45.2746 40.007 45.3149 39.9356 45.3413C39.8643 45.3677 39.7884 45.3798 39.7124 45.3768C39.4687 45.3678 39.2334 45.3653 39.0165 45.3783C42.665 46.9688 46.4934 50.0485 49.9501 52.4919V52.4921ZM27.7809 53.1401C27.5866 52.4173 27.3989 51.6476 26.9853 51.2908C26.8502 51.5093 26.6356 51.6668 26.3867 51.7301C26.1378 51.7935 25.874 51.7577 25.6509 51.6305L24.616 51.0369C24.3916 51.3824 24.0436 51.629 23.6433 51.7262C23.2431 51.8235 22.8207 51.7641 22.4628 51.5601L19.4972 49.8596C19.1277 49.6467 18.8575 49.296 18.7458 48.8844C18.6341 48.4728 18.6899 48.0337 18.9011 47.6632L25.174 36.7332C25.3871 36.3634 25.7379 36.0931 26.1498 35.9813C26.5616 35.8695 27.001 35.9254 27.3718 36.1367L30.3373 37.8368C30.6943 38.0425 30.959 38.3769 31.0773 38.7715C31.1956 39.166 31.1585 39.5909 30.9736 39.9591L32.0074 40.5518C32.2347 40.6825 32.401 40.8979 32.4698 41.151C32.5385 41.404 32.5042 41.674 32.3744 41.9018L32.2578 42.1048C33.0861 42.7565 33.789 42.5418 34.9113 43.0697C35.1459 42.6963 35.3847 42.3264 35.6381 41.9598C36.1539 41.2131 36.8118 40.9675 37.7016 40.8631C38.7622 40.7388 40.6913 40.8308 41.9573 40.8722C43.678 40.9284 44.674 40.961 46.3941 41.5196C46.7891 41.6479 47.2189 41.7769 47.6061 41.8627C47.49 41.6362 47.4656 41.3737 47.5378 41.1296C47.61 40.8855 47.7733 40.6786 47.994 40.5517L49.0279 39.9589C48.8431 39.5907 48.8062 39.1657 48.9245 38.7711C49.0429 38.3765 49.3076 38.0421 49.6645 37.8363L52.6297 36.1365C53.0005 35.9252 53.4398 35.8693 53.8517 35.9811C54.2636 36.0929 54.6144 36.3632 54.8275 36.733L61.1004 47.663C61.3116 48.0335 61.3674 48.4726 61.2557 48.8842C61.1439 49.2958 60.8738 49.6465 60.5043 49.8594L57.5386 51.5597C57.1808 51.7637 56.7584 51.8231 56.3582 51.7258C55.9579 51.6286 55.6099 51.382 55.3855 51.0366L54.3506 51.6301C54.1228 51.76 53.8528 51.7943 53.5997 51.7256C53.3466 51.6568 53.131 51.4906 53.0003 51.2632L52.9238 51.1302C52.5295 51.63 51.9038 52.7072 51.5794 52.9714C51.432 53.0935 51.2723 53.2 51.1029 53.2891L51.2346 53.3775C52.6606 54.3348 52.2175 56.5483 50.5284 56.8817C50.2931 56.9281 50.0512 56.9305 49.815 56.8888C49.7734 57.3948 49.5348 57.8642 49.1505 58.196C48.7662 58.5278 48.267 58.6954 47.7603 58.6627C47.7292 60.1204 46.1061 61.1076 44.7107 60.2048C44.5225 61.5276 42.9057 62.2311 41.7426 61.4722L40.1944 60.4594C39.5854 59.9755 38.6965 59.817 37.995 59.4905L37.7111 59.916C36.8487 61.1671 34.9502 60.9611 34.3591 59.558C34.1251 59.6838 33.8677 59.76 33.6029 59.7817C33.3381 59.8034 33.0717 59.7703 32.8204 59.6843C32.569 59.5984 32.3381 59.4615 32.142 59.2822C31.946 59.1029 31.7891 58.8851 31.6811 58.6424C31.3709 58.7903 31.0269 58.853 30.6845 58.8243C30.342 58.7955 30.0134 58.6762 29.7322 58.4786C29.4511 58.281 29.2275 58.0122 29.0843 57.6998C28.9412 57.3874 28.8837 57.0425 28.9177 56.7005C27.462 56.6128 26.5846 54.9336 27.4289 53.6674L27.7808 53.1398L27.7809 53.1401ZM28.3892 54.3112C28.7054 53.837 29.3765 52.5887 29.8736 52.4932C30.556 52.3621 31.0372 53.1494 30.6601 53.715L29.5799 55.3139C28.9368 55.9841 27.8641 55.0993 28.3893 54.3112H28.3892ZM27.5706 50.2715C28.1271 50.6702 28.3954 51.2161 28.6286 51.9181C28.8326 51.7038 29.0834 51.5397 29.3615 51.4384C29.6395 51.3372 29.9372 51.3016 30.2312 51.3345C30.5253 51.3674 30.8077 51.4678 31.0565 51.628C31.3053 51.7881 31.5137 52.0037 31.6654 52.2577L31.9641 51.8201C32.9258 50.4108 35.1432 50.8509 35.4643 52.5536C35.5044 52.7652 35.509 52.9819 35.4781 53.1951C35.7429 53.2105 36.0017 53.2802 36.2385 53.3997C36.4753 53.5192 36.6851 53.6861 36.8548 53.89C37.0246 54.0938 37.1507 54.3304 37.2253 54.5849C37.2999 54.8395 37.3215 55.1066 37.2888 55.3699C38.7174 55.497 39.5531 57.1532 38.7231 58.3989L38.6472 58.5128C38.8001 58.5749 38.9747 58.6361 39.157 58.7001C39.7304 58.9012 40.3661 59.1243 40.8984 59.5416L42.3725 60.5029C43.2349 61.065 44.1317 59.8584 43.1501 59.1963L40.5693 57.5254C40.5047 57.4845 40.4489 57.4311 40.405 57.3685C40.3612 57.3058 40.3302 57.2351 40.3138 57.1604C40.2975 57.0857 40.2962 57.0085 40.3099 56.9332C40.3236 56.858 40.3522 56.7862 40.3938 56.7221C40.4355 56.658 40.4894 56.6027 40.5526 56.5596C40.6157 56.5165 40.6868 56.4863 40.7617 56.4709C40.8366 56.4554 40.9138 56.4549 40.9889 56.4695C41.064 56.4841 41.1354 56.5135 41.199 56.5558C42.5942 57.4585 43.9886 58.3609 45.3824 59.2629C45.9595 59.6364 46.724 59.1637 46.5866 58.4685C46.548 58.2682 46.4318 58.0912 46.2632 57.9763L41.6672 54.901C41.6041 54.8588 41.55 54.8045 41.5079 54.7413C41.4658 54.6782 41.4366 54.6073 41.4218 54.5329C41.4071 54.4584 41.4072 54.3818 41.4221 54.3074C41.437 54.2329 41.4664 54.1622 41.5087 54.0991C41.5509 54.036 41.6051 53.9819 41.6683 53.9398C41.7315 53.8977 41.8023 53.8685 41.8768 53.8537C41.9512 53.839 42.0279 53.8391 42.1023 53.854C42.1767 53.8689 42.2475 53.8983 42.3106 53.9405L47.4497 57.3792C48.3038 57.9506 49.1759 56.6587 48.3194 56.0874L43.9371 53.153C43.8735 53.111 43.8188 53.0569 43.7762 52.9936C43.7336 52.9304 43.704 52.8594 43.6889 52.7847C43.6739 52.71 43.6738 52.633 43.6886 52.5582C43.7034 52.4835 43.7329 52.4124 43.7753 52.349C43.8177 52.2857 43.8723 52.2314 43.9358 52.1892C43.9993 52.147 44.0705 52.1179 44.1453 52.1033C44.2201 52.0888 44.2971 52.0892 44.3717 52.1045C44.4464 52.1198 44.5173 52.1497 44.5804 52.1926L49.7196 55.6313C50.2752 56.0035 51.0555 55.5335 50.917 54.8325C50.8978 54.7324 50.8589 54.6371 50.8026 54.5522C50.7464 54.4672 50.6739 54.3942 50.5893 54.3373C46.5431 51.625 41.91 47.6463 37.7416 46.1093L36.0197 48.4625C35.7136 48.8748 35.2562 49.1485 34.7482 49.2236C34.2402 49.2986 33.7232 49.1688 33.3109 48.8626C32.8987 48.5565 32.6249 48.0991 32.5498 47.5911C32.4748 47.0831 32.6046 46.5661 32.9108 46.1538C33.4364 45.4354 33.875 44.7418 34.2956 44.0628C33.3417 43.6685 32.6403 43.8201 31.6775 43.1164L27.5706 50.2715Z" fill="white"></path></g><defs><linearGradient id="paint0_linear_136_618" x1="40.0006" y1="0" x2="40.0006" y2="79.9974" gradientUnits="userSpaceOnUse"><stop stop-color="#DD754D"></stop><stop offset="1" stop-color="#44C7EE"></stop></linearGradient><clipPath id="clip0_136_618"><rect width="43.57" height="43.57" fill="white" transform="translate(18.2148 18.2139)"></rect></clipPath></defs></svg>