<svg xmlns="http://www.w3.org/2000/svg" width="26" height="26" viewBox="0 0 26 26" fill="none"><path d="M25.2298 17.091C25.2298 18.8144 25.2298 20.5449 25.2298 22.2676C25.2298 22.7574 25.0815 22.9071 24.5903 22.9071C23.2832 22.9071 21.9754 22.9071 20.6683 22.9071C20.1932 22.9071 20.0442 22.7518 20.0442 22.2606C20.0442 19.1776 20.0512 16.0953 20.0442 13.013C20.0372 10.9699 18.5517 9.0911 16.6498 8.69786C14.191 8.19266 11.9484 9.74464 11.5328 12.2406C11.4873 12.5302 11.4593 12.8276 11.4593 13.125C11.4523 16.1555 11.4593 19.193 11.4593 22.2235C11.4593 22.7651 11.318 22.9071 10.7911 22.9071C9.49798 22.9071 8.19929 22.9071 6.90621 22.9071C6.4164 22.9071 6.27506 22.7658 6.27506 22.2676C6.27506 19.37 6.27506 16.4739 6.27506 13.5777C6.27506 13.006 6.1631 12.8941 5.62152 12.7318C4.9155 12.5169 4.19548 12.3161 3.53494 12.0117C1.6261 11.1427 0.616403 9.57531 0.303627 7.54822C0.177677 6.70925 0.132195 5.86188 0.0734186 5.00752C0.0440302 4.57719 0.22176 4.40646 0.667483 4.40646C2.02704 4.40646 3.37821 4.41346 4.73777 4.42885C5.22757 4.43585 5.34653 4.57719 5.39131 5.0754C5.45078 5.75903 5.51026 6.44895 5.63621 7.12558C5.68869 7.42297 5.86642 7.72664 6.05954 7.97155C6.52766 8.54322 7.1658 8.46975 7.62692 7.90507C8.1916 7.20605 8.74858 6.48604 9.4392 5.92136C11.5258 4.19795 13.9923 3.58989 16.6659 3.78931C18.8575 3.95304 20.8181 4.71714 22.4666 6.19565C24.2635 7.80711 25.2228 9.83491 25.2592 12.2566C25.2522 13.8597 25.2298 15.4712 25.2298 17.091Z" fill="#44C7EE"></path></svg>