<svg xmlns="http://www.w3.org/2000/svg" width="40" height="30" viewBox="0 0 40 30" fill="none"><path d="M38.9817 21.1083C38.9117 21.1183 38.84 21.1299 38.7733 21.1299C37.9367 21.1299 37.5917 20.6549 37.8833 19.1833C37.9983 18.6033 39.2817 12.3033 39.8133 9.60992C40.525 6.01325 39.18 4.33325 36.095 4.33325C34.2 4.33325 32.19 5.30825 30.3567 7.07825C30.07 5.21992 28.7533 4.33325 26.5183 4.33325C24.3717 4.33325 22.0783 5.58659 20.0617 7.82325C19.3217 5.46992 17.0667 4.33325 13.625 4.33325H0L1.19667 10.1183H12.1233C13.7767 10.1183 14.4983 10.7399 14.215 12.0749C13.9333 13.4116 11.605 25.2049 11.605 25.2049H17.44C17.44 25.2049 19.3783 15.4599 20.1167 11.7133C20.185 11.3683 20.2333 11.0366 20.27 10.7166C21.3033 9.62492 22.4183 8.86992 23.2767 8.86992C24.1133 8.86992 24.4583 9.34492 24.1667 10.8166C23.8483 12.4266 21.305 25.2049 21.305 25.2049H27.1333C27.1333 25.2049 29.2817 14.4166 30.0583 10.4999C31.0333 9.52825 32.0533 8.86992 32.855 8.86992C33.6917 8.86992 34.0367 9.34492 33.745 10.8166C33.6067 11.5183 32.36 17.6366 31.815 20.3883C31.105 23.9883 32.4483 25.6666 35.5333 25.6666C36.6617 25.6666 37.8317 25.3183 38.9817 24.6633V21.1083Z" fill="#DD754D"></path></svg>