<svg xmlns="http://www.w3.org/2000/svg" width="80" height="80" viewBox="0 0 80 80" fill="none"><rect x="0.00195312" width="79.9974" height="79.9974" rx="39.9981" fill="url(#paint0_linear_136_586)"></rect><rect x="4.14844" y="4.14746" width="71.7095" height="71.7095" rx="35.8506" fill="#0C2C47"></rect><g clip-path="url(#clip0_136_586)"><path d="M57.1781 31.9062L51.9627 27.0381C52.0798 26.52 52.1477 25.9863 52.1477 25.4435C52.1477 22.055 49.8259 19.2979 46.9724 19.2979C44.1189 19.2979 41.7971 22.055 41.7971 25.4435C41.7971 25.9966 41.8644 26.5297 41.9802 27.0401L40.7038 28.2317L36.288 28.3009C35.1637 28.3184 34.0866 28.8068 33.3323 29.6407L19.3978 45.0475C19.0776 45.402 18.9139 45.8594 18.9378 46.3368C18.9618 46.8142 19.1701 47.2535 19.5246 47.5737L32.2248 59.0603C32.5663 59.3695 32.9952 59.5215 33.4235 59.5215C33.9113 59.5215 34.3984 59.3229 34.751 58.9335L35.328 58.2956V58.7595C35.328 59.8295 36.1987 60.7002 37.2687 60.7002H56.6761C57.7461 60.7002 58.6168 59.8295 58.6168 58.7595V35.2164C58.6168 33.9659 58.0922 32.7594 57.1781 31.9062ZM43.0909 25.4435C43.0909 22.7679 44.8318 20.5917 46.9724 20.5917C49.113 20.5917 50.8539 22.7679 50.8539 25.4435C50.8539 25.6221 50.8371 25.7974 50.8215 25.9733L49.6532 24.8833C48.9235 24.2014 47.9712 23.8262 46.9724 23.8262C45.9736 23.8262 45.0213 24.2014 44.291 24.8833L43.1155 25.9804C43.1006 25.8038 43.0909 25.6253 43.0909 25.4435ZM35.2905 56.4073L33.7909 58.0653C33.6085 58.2672 33.2941 58.2833 33.0923 58.1003L20.3921 46.6137C20.2944 46.5251 20.2368 46.4034 20.2304 46.2721C20.2239 46.1402 20.2692 46.0134 20.3578 45.9157L34.2923 30.5095C34.8066 29.9408 35.5421 29.607 36.3087 29.5954L39.2942 29.5482L36.7674 31.9068C35.8526 32.7594 35.328 33.9659 35.328 35.2164V40.8808L32.0812 37.9444C31.8153 37.7044 31.4064 37.7258 31.1671 37.9904L24.2755 45.611C24.1604 45.7384 24.1002 45.906 24.1093 46.0774C24.1177 46.2488 24.194 46.4099 24.3214 46.5244L32.7882 54.1819C32.9118 54.2938 33.0677 54.3488 33.2217 54.3488C33.3983 54.3488 33.5742 54.277 33.7017 54.136L35.328 52.3382V56.3795C35.3164 56.3911 35.3015 56.3956 35.2905 56.4073ZM35.328 50.4098L33.1764 52.7885L25.669 45.9991L31.693 39.3385L35.328 42.6261V50.4098ZM56.6761 59.4064H37.2687C36.9123 59.4064 36.6218 59.1159 36.6218 58.7595V56.8187H50.8539C51.2116 56.8187 51.5008 56.5289 51.5008 56.1718C51.5008 55.8147 51.2116 55.5249 50.8539 55.5249H36.6218V35.2164C36.6218 34.323 36.9964 33.4613 37.6491 32.8519L42.4317 28.3883C42.7746 29.1303 43.2443 29.7752 43.8032 30.2915C43.7605 30.5017 43.7379 30.7197 43.7379 30.9423C43.7379 32.7258 45.1889 34.1768 46.9724 34.1768C48.7559 34.1768 50.207 32.7258 50.207 30.9423C50.207 29.1587 48.7559 27.7077 46.9724 27.7077C45.9037 27.7077 44.9618 28.2349 44.3725 29.0358C43.9811 28.5927 43.6622 28.0538 43.4409 27.4464L45.174 25.8291C45.6644 25.3717 46.3029 25.1201 46.9724 25.1201C47.642 25.1201 48.2805 25.3717 48.7702 25.8291L56.2951 32.8519C56.9484 33.462 57.323 34.3237 57.323 35.2164V55.5249H54.7353C54.3776 55.5249 54.0884 55.8147 54.0884 56.1718C54.0884 56.5289 54.3776 56.8187 54.7353 56.8187H57.323V58.7595C57.323 59.1159 57.0332 59.4064 56.6761 59.4064ZM46.9724 30.2953C46.3992 30.2953 45.8565 30.1349 45.3661 29.8548C45.7155 29.3405 46.3048 29.0015 46.9724 29.0015C48.0424 29.0015 48.9131 29.8723 48.9131 30.9423C48.9131 32.0123 48.0424 32.883 46.9724 32.883C45.9716 32.883 45.1552 32.119 45.0524 31.1454C45.6469 31.4287 46.2938 31.5892 46.9724 31.5892C47.3302 31.5892 47.6193 31.2994 47.6193 30.9423C47.6193 30.5852 47.3302 30.2953 46.9724 30.2953Z" fill="white"></path><path d="M47.9724 36.7646C43.3353 36.7646 39.5625 40.5374 39.5625 45.1745C39.5625 49.8116 43.3353 53.5844 47.9724 53.5844C52.6094 53.5844 56.3822 49.8116 56.3822 45.1745C56.3822 40.5374 52.6094 36.7646 47.9724 36.7646ZM47.9724 52.2905C44.0488 52.2905 40.8563 49.098 40.8563 45.1745C40.8563 41.251 44.0488 38.0585 47.9724 38.0585C51.8959 38.0585 55.0884 41.251 55.0884 45.1745C55.0884 49.098 51.8959 52.2905 47.9724 52.2905Z" fill="white"></path><path d="M47.9744 41.9397C48.6879 41.9397 49.2682 42.52 49.2682 43.2335C49.2682 43.5906 49.5574 43.8804 49.9151 43.8804C50.2728 43.8804 50.562 43.5906 50.562 43.2335C50.562 42.0316 49.734 41.0269 48.6213 40.7377L48.6206 39.999C48.6206 39.6419 48.3308 39.3521 47.9737 39.3521C47.616 39.3521 47.3268 39.6419 47.3268 39.999L47.3275 40.7377C46.2148 41.0269 45.3867 42.0316 45.3867 43.2335C45.3867 44.6606 46.5473 45.8212 47.9744 45.8212C48.6879 45.8212 49.2682 46.4014 49.2682 47.115C49.2682 47.8285 48.6879 48.4088 47.9744 48.4088C47.2608 48.4088 46.6805 47.8285 46.6805 47.115C46.6805 46.7579 46.3914 46.4681 46.0336 46.4681C45.6759 46.4681 45.3867 46.7579 45.3867 47.115C45.3867 48.317 46.2141 49.321 47.3268 49.6108L47.3275 50.3495C47.3275 50.7066 47.6173 50.9965 47.9744 50.9965C48.3315 50.9965 48.6213 50.7066 48.6213 50.3495L48.6206 49.6114C49.734 49.3216 50.562 48.3176 50.562 47.115C50.562 45.6879 49.4015 44.5273 47.9744 44.5273C47.2608 44.5273 46.6805 43.9471 46.6805 43.2335C46.6805 42.52 47.2608 41.9397 47.9744 41.9397Z" fill="white"></path><path d="M22.0677 30.1723C23.1629 31.5832 23.5886 32.9973 23.7529 33.9353C23.8073 34.2446 24.0757 34.4703 24.3901 34.4703C24.7045 34.4703 24.973 34.2446 25.0273 33.9353C25.1917 32.9967 25.6173 31.5845 26.7125 30.182C27.4028 29.2925 28.2606 28.5259 29.2601 27.9042C29.4503 27.7858 29.5654 27.5781 29.5654 27.3543C29.5654 27.1305 29.4503 26.9228 29.2601 26.8051C28.2613 26.1834 27.4035 25.4194 26.7125 24.5364C25.6173 23.1254 25.1917 21.7113 25.0273 20.7733C24.973 20.4641 24.7045 20.2383 24.3901 20.2383C24.0757 20.2383 23.8073 20.4641 23.7529 20.7733C23.5886 21.7113 23.1629 23.1254 22.069 24.5344C21.3762 25.4194 20.519 26.1834 19.5195 26.8051C19.33 26.9228 19.2148 27.1305 19.2148 27.3543C19.2148 27.5781 19.33 27.7858 19.5202 27.9035C20.519 28.5252 21.3768 29.2892 22.0677 30.1723ZM23.0898 25.3301C23.6727 24.5784 24.0906 23.8261 24.3901 23.1261C24.6897 23.8261 25.1082 24.5797 25.6917 25.3314C26.2843 26.0883 26.981 26.7656 27.7709 27.3543C26.9791 27.9449 26.2824 28.6261 25.6917 29.3869C25.1082 30.1334 24.6903 30.8845 24.3901 31.5832C24.0906 30.8832 23.6721 30.1289 23.0879 29.3772C22.496 28.6203 21.7993 27.9424 21.0094 27.3543C21.7993 26.7656 22.4966 26.0877 23.0898 25.3301Z" fill="white"></path></g><defs><linearGradient id="paint0_linear_136_586" x1="40.0006" y1="0" x2="40.0006" y2="79.9974" gradientUnits="userSpaceOnUse"><stop stop-color="#DD754D"></stop><stop offset="1" stop-color="#44C7EE"></stop></linearGradient><clipPath id="clip0_136_586"><rect width="43.57" height="43.57" fill="white" transform="translate(18.2148 18.2139)"></rect></clipPath></defs></svg>